<?xml version="1.0" encoding="iso-8859-1"?>
<!-- Generator: Adobe Illustrator 19.0.0, SVG Export Plug-In . SVG Version: 6.00 Build 0)  -->
<svg version="1.1" id="Layer_1" xmlns:sketch="http://www.bohemiancoding.com/sketch/ns"
	 xmlns="http://www.w3.org/2000/svg" xmlns:xlink="http://www.w3.org/1999/xlink" x="0px" y="0px" viewBox="0 271 620 80"
	 enable-background="new 0 271 620 80" xml:space="preserve">
<title>Payment/PayPal/Paypal-card-dark</title>
<desc>Created with Sketch.</desc>
<path id="Fill-72_1_" sketch:type="MSShapeGroup" fill="#008FBE" d="M78.324,299.28C73.31,282.908,58.067,271,40.039,271
	C17.926,271,0,288.909,0,311.001C0,333.092,17.926,351,40.039,351c18.117,0,33.418-12.025,38.354-28.522
	c-2.069,1.25-4.542,1.987-7.302,1.987c-8.049,0-13.663-6.096-13.663-13.464v-0.074c0-7.369,5.691-13.539,13.739-13.539
	C73.87,297.388,76.289,298.087,78.324,299.28L78.324,299.28z M30.805,324.016H11.861v-3.626l9.021-7.668
	c3.594-3.029,4.906-4.711,4.906-7.068c0-2.581-1.835-4.078-4.231-4.078s-4.044,1.309-6.063,3.929l-3.258-2.545
	c2.508-3.517,4.978-5.497,9.657-5.497c5.13,0,8.649,3.142,8.649,7.817v0.074c0,4.112-2.171,6.359-6.813,10.135l-5.393,4.489h12.469
	L30.805,324.016L30.805,324.016z M56.79,300.983l-3.243,3.165c-1.867-1.541-3.909-2.535-6.515-2.535
	c-5.017,0-8.647,4.113-8.647,9.238v0.076c0,5.123,3.63,9.313,8.647,9.313c2.698,0,4.579-0.928,6.441-2.46l3.069,2.999
	c-2.488,2.284-5.329,3.686-9.66,3.686c-7.638,0-13.326-5.947-13.326-13.464v-0.074c0-7.444,5.58-13.539,13.514-13.539
	C51.563,297.388,54.397,298.854,56.79,300.983L56.79,300.983z M80,311.001v-0.074c0-5.087-3.704-9.314-8.91-9.314
	c-5.201,0-8.834,4.151-8.834,9.238v0.076c0,5.086,3.705,9.313,8.911,9.313C76.369,320.24,80,316.087,80,311.001L80,311.001z"/>
<g>
	<g>
		<path id="path-3_3_" fill="#FFFFFF" d="M436.115,341H508c2.209,0,4-1.787,4-3.995v-22.307C512,314.698,485.2,332.868,436.115,341z
			"/>
	</g>
	<g>
		<path id="path-1_3_" fill="#FFFFFF" d="M416,281h92c2.209,0,4,1.791,4,4v52c0,2.209-1.791,4-4,4h-92c-2.209,0-4-1.791-4-4v-52
			C412,282.791,413.791,281,416,281z"/>
	</g>
	<g id="Icons:-Credit-card_1_" sketch:type="MSPage">
		<g id="Discover-card-light" sketch:type="MSArtboardGroup">
			<g id="Credit-Card_x2F_Discover_x2F_Discover-card-light" sketch:type="MSLayerGroup">
				<g id="Rectangle_1_">
					<g id="Mask_3_" sketch:type="MSShapeGroup">
						<path id="path-1_2_" fill="#FFFFFF" d="M416,281h92c2.209,0,4,1.791,4,4v52c0,2.209-1.791,4-4,4h-92c-2.209,0-4-1.791-4-4v-52
							C412,282.791,413.791,281,416,281z"/>
					</g>
					<g id="Mask_2_" sketch:type="MSShapeGroup">
						<path id="path-3_2_" fill="#E7772F" d="M436.115,341H508c2.209,0,4-1.787,4-3.995v-22.307
							C512,314.698,485.2,332.868,436.115,341z"/>
					</g>
				</g>
				<path id="Fill-13_1_" sketch:type="MSShapeGroup" fill="#1A1918" d="M430.289,310.822c-0.751,0.642-1.706,0.923-3.235,0.923
					h-0.634v-7.66h0.634c1.528,0,2.447,0.262,3.235,0.936c0.813,0.696,1.301,1.77,1.301,2.882
					C431.59,309.018,431.101,310.131,430.289,310.822L430.289,310.822z M427.527,302.122h-3.47v11.585h3.448
					c1.835,0,3.16-0.418,4.321-1.34c1.379-1.092,2.198-2.741,2.198-4.45C434.025,304.498,431.355,302.122,427.527,302.122
					L427.527,302.122z"/>
				<path id="Fill-14_1_" sketch:type="MSShapeGroup" fill="#1A1918" d="M435.114,302.122h2.353v11.585h-2.353V302.122z"/>
				<path id="Fill-15_1_" sketch:type="MSShapeGroup" fill="#1A1918" d="M443.244,306.563c-1.42-0.498-1.835-0.83-1.835-1.457
					c0-0.728,0.742-1.28,1.762-1.28c0.707,0,1.289,0.271,1.91,0.932l1.228-1.542c-1.015-0.855-2.23-1.287-3.554-1.287
					c-2.143,0-3.776,1.426-3.776,3.312c0,1.601,0.759,2.414,2.975,3.185c0.926,0.308,1.397,0.519,1.635,0.661
					c0.472,0.292,0.707,0.71,0.707,1.194c0,0.942-0.78,1.635-1.835,1.635c-1.123,0-2.032-0.538-2.576-1.548l-1.522,1.411
					c1.088,1.526,2.393,2.208,4.19,2.208c2.451,0,4.178-1.57,4.178-3.807C446.731,308.338,445.93,307.502,443.244,306.563"/>
				<path id="Fill-16_1_" sketch:type="MSShapeGroup" fill="#1A1918" d="M447.473,307.918c0,3.407,2.795,6.047,6.392,6.047
					c1.014,0,1.884-0.192,2.955-0.675v-2.662c-0.946,0.91-1.777,1.269-2.852,1.269c-2.377,0-4.061-1.646-4.061-3.994
					c0-2.219,1.738-3.977,3.958-3.977c1.12,0,1.975,0.38,2.955,1.303v-2.659c-1.035-0.501-1.884-0.708-2.906-0.708
					C450.337,301.861,447.473,304.552,447.473,307.918"/>
				<path id="Fill-17_1_" sketch:type="MSShapeGroup" fill="#1A1918" d="M475.949,309.9l-3.228-7.778h-2.574L475.278,314h1.266
					l5.232-11.878h-2.554L475.949,309.9"/>
				<path id="Fill-18_1_" sketch:type="MSShapeGroup" fill="#1A1918" d="M482.847,313.708h6.695v-1.963h-4.333v-3.127h4.169v-1.963
					h-4.169v-2.57h4.333v-1.962h-6.695V313.708"/>
				<path id="Fill-19_1_" sketch:type="MSShapeGroup" fill="#1A1918" d="M494.154,307.45h-0.685v-3.504h0.724
					c1.475,0,2.265,0.592,2.265,1.721C496.458,306.826,495.668,307.45,494.154,307.45L494.154,307.45z M498.889,305.541
					c0-2.169-1.555-3.418-4.281-3.418h-3.507v11.585h2.367v-4.658h0.307l3.262,4.658h2.905l-3.809-4.883
					C497.913,308.477,498.889,307.313,498.889,305.541L498.889,305.541z"/>
				<path id="Fill-20_1_" sketch:type="MSShapeGroup" fill="#E7772F" d="M470.479,307.945c0,3.335-2.824,6.039-6.311,6.039
					c-3.486,0-6.311-2.703-6.311-6.039c0-3.336,2.825-6.04,6.311-6.04C467.655,301.905,470.479,304.609,470.479,307.945"/>
			</g>
		</g>
	</g>
</g>
<g id="Icons:-Credit-card_2_" sketch:type="MSPage">
	<g id="MasterCard-card-light" sketch:type="MSArtboardGroup">
		<g id="Credit-Card_x2F_MasterCard_x2F_MasterCard-light" sketch:type="MSLayerGroup">
			<path id="Rectangle_2_" sketch:type="MSShapeGroup" fill="#FFFFFF" d="M200,281h92c2.209,0,4,1.791,4,4v52c0,2.209-1.791,4-4,4
				h-92c-2.209,0-4-1.791-4-4v-52C196,282.791,197.791,281,200,281z"/>
			<path id="Fill-333_1_" sketch:type="MSShapeGroup" fill="#CC0000" d="M252.129,311.485c0,10.778-8.737,19.515-19.515,19.515
				c-10.778,0-19.516-8.736-19.516-19.515c0-10.778,8.737-19.515,19.516-19.515C243.392,291.97,252.129,300.707,252.129,311.485"/>
			<path id="Fill-334_1_" sketch:type="MSShapeGroup" fill="#FF9900" d="M258.814,291.97c-5.044,0-9.637,1.913-13.101,5.051
				c-0.705,0.64-1.363,1.33-1.97,2.066h3.943c0.538,0.656,1.035,1.345,1.488,2.067h-6.919c-0.414,0.663-0.79,1.353-1.124,2.067
				h9.167c0.313,0.669,0.589,1.358,0.827,2.066h-10.82c-0.225,0.673-0.415,1.362-0.567,2.066h11.953
				c0.286,1.332,0.439,2.715,0.439,4.133c0,2.167-0.353,4.252-1.005,6.199h-10.82c0.237,0.707,0.513,1.397,0.826,2.067h9.167
				c-0.335,0.712-0.709,1.402-1.126,2.067h-6.917c0.451,0.72,0.948,1.41,1.488,2.065h3.942c-0.606,0.736-1.264,1.427-1.971,2.067
				c3.464,3.138,8.057,5.05,13.101,5.05c10.778,0,19.515-8.736,19.515-19.515C278.329,300.708,269.592,291.97,258.814,291.97"/>
			<path id="Fill-336_1_" sketch:type="MSShapeGroup" fill="#000066" d="M228.057,313.622c-0.222-0.025-0.32-0.033-0.473-0.033
				c-1.201,0-1.808,0.412-1.808,1.226c0,0.501,0.296,0.82,0.759,0.82C227.398,315.634,228.02,314.813,228.057,313.622
				L228.057,313.622z M229.598,317.209h-1.756l0.04-0.834c-0.535,0.659-1.25,0.973-2.22,0.973c-1.148,0-1.935-0.896-1.935-2.199
				c0-1.961,1.369-3.104,3.719-3.104c0.241,0,0.549,0.022,0.864,0.062c0.065-0.266,0.083-0.379,0.083-0.522
				c0-0.533-0.369-0.733-1.358-0.733c-1.037-0.01-1.891,0.248-2.243,0.363c0.022-0.134,0.294-1.811,0.294-1.811
				c1.055-0.31,1.752-0.426,2.535-0.426c1.82,0,2.783,0.817,2.781,2.361c0.004,0.414-0.065,0.923-0.171,1.595
				C230.046,314.1,229.652,316.601,229.598,317.209L229.598,317.209z"/>
			<path id="Fill-337_1_" sketch:type="MSShapeGroup" fill="#000066" d="M222.84,317.209h-2.119l1.214-7.609l-2.711,7.609h-1.444
				l-0.179-7.566l-1.276,7.566h-1.983l1.656-9.899h3.047l0.184,5.541l1.859-5.541h3.388L222.84,317.209"/>
			<path id="Fill-338_1_" sketch:type="MSShapeGroup" fill="#000066" d="M261.432,313.622c-0.222-0.025-0.319-0.033-0.472-0.033
				c-1.202,0-1.808,0.412-1.808,1.226c0,0.501,0.295,0.82,0.759,0.82C260.773,315.634,261.396,314.813,261.432,313.622
				L261.432,313.622z M262.974,317.209h-1.755l0.04-0.834c-0.535,0.659-1.25,0.973-2.22,0.973c-1.149,0-1.936-0.896-1.936-2.199
				c0-1.961,1.37-3.104,3.719-3.104c0.241,0,0.548,0.022,0.863,0.062c0.066-0.266,0.083-0.379,0.083-0.522
				c0-0.533-0.369-0.733-1.358-0.733c-1.037-0.01-1.891,0.248-2.244,0.363c0.023-0.134,0.296-1.811,0.296-1.811
				c1.055-0.31,1.752-0.426,2.534-0.426c1.821,0,2.783,0.817,2.781,2.361c0.004,0.414-0.064,0.923-0.171,1.595
				C263.423,314.1,263.027,316.601,262.974,317.209L262.974,317.209z"/>
			<path id="Fill-339_1_" sketch:type="MSShapeGroup" fill="#000066" d="M239.013,317.087c-0.58,0.183-1.032,0.262-1.522,0.262
				c-1.083,0-1.674-0.622-1.674-1.769c-0.015-0.356,0.156-1.292,0.29-2.146c0.123-0.752,0.919-5.494,0.919-5.494h2.105l-0.246,1.219
				h1.272l-0.287,1.935h-1.276c-0.245,1.531-0.593,3.438-0.597,3.691c0,0.415,0.221,0.596,0.726,0.596
				c0.241,0,0.428-0.025,0.571-0.076L239.013,317.087"/>
			<path id="Fill-340_1_" sketch:type="MSShapeGroup" fill="#000066" d="M245.47,317.021c-0.724,0.221-1.421,0.329-2.161,0.327
				c-2.358-0.003-3.587-1.234-3.587-3.591c0-2.752,1.563-4.778,3.686-4.778c1.736,0,2.845,1.134,2.845,2.913
				c0,0.591-0.076,1.167-0.26,1.98H241.8c-0.142,1.168,0.605,1.654,1.831,1.654c0.753,0,1.433-0.155,2.189-0.506L245.47,317.021
				L245.47,317.021z M244.286,312.249c0.012-0.168,0.223-1.437-0.981-1.437c-0.67,0-1.15,0.511-1.345,1.437H244.286L244.286,312.249
				z"/>
			<path id="Fill-341_1_" sketch:type="MSShapeGroup" fill="#000066" d="M230.868,311.704c0,1.017,0.493,1.72,1.613,2.247
				c0.858,0.404,0.991,0.523,0.991,0.889c0,0.501-0.379,0.729-1.217,0.729c-0.633,0-1.22-0.099-1.898-0.319
				c0,0-0.278,1.775-0.291,1.86c0.481,0.104,0.911,0.201,2.205,0.238c2.235,0,3.268-0.851,3.268-2.691
				c0-1.106-0.432-1.755-1.493-2.244c-0.888-0.407-0.991-0.499-0.991-0.874c0-0.435,0.352-0.658,1.037-0.658
				c0.416,0,0.984,0.044,1.523,0.121l0.301-1.867c-0.548-0.087-1.38-0.156-1.865-0.156
				C231.681,308.979,230.861,310.217,230.868,311.704"/>
			<path id="Fill-342_1_" sketch:type="MSShapeGroup" fill="#000066" d="M255.774,309.192c0.588,0,1.138,0.153,1.893,0.534
				l0.347-2.148c-0.311-0.122-1.404-0.838-2.329-0.838c-1.417,0-2.617,0.704-3.459,1.864c-1.23-0.407-1.736,0.416-2.355,1.236
				l-0.55,0.128c0.042-0.27,0.08-0.538,0.068-0.81h-1.947c-0.265,2.492-0.736,5.016-1.105,7.509l-0.097,0.542h2.12
				c0.354-2.299,0.547-3.77,0.665-4.767l0.798-0.442c0.12-0.444,0.492-0.594,1.241-0.575c-0.098,0.525-0.151,1.078-0.151,1.65
				c0,2.634,1.423,4.274,3.703,4.274c0.588,0,1.092-0.077,1.873-0.29l0.371-2.256c-0.703,0.345-1.278,0.508-1.799,0.508
				c-1.232,0-1.977-0.909-1.977-2.412C253.084,310.718,254.191,309.192,255.774,309.192"/>
			<path id="Fill-343_1_" sketch:type="MSShapeGroup" fill="#000066" d="M273.711,307.31l-0.471,2.86
				c-0.578-0.762-1.201-1.314-2.022-1.314c-1.069,0-2.042,0.81-2.679,2.004c-0.887-0.184-1.804-0.497-1.804-0.497l-0.001,0.008
				c0.071-0.667,0.101-1.073,0.093-1.212h-1.946c-0.264,2.492-0.736,5.016-1.104,7.509l-0.097,0.542h2.12
				c0.286-1.858,0.505-3.402,0.666-4.625c0.725-0.655,1.087-1.225,1.818-1.188c-0.324,0.784-0.513,1.686-0.513,2.612
				c0,2.012,1.017,3.34,2.558,3.34c0.777,0,1.372-0.268,1.953-0.888l-0.1,0.749h2.005l1.614-9.898H273.711L273.711,307.31z
				 M271.062,315.349c-0.721,0-1.086-0.535-1.086-1.587c0-1.582,0.682-2.704,1.643-2.704c0.728,0,1.123,0.554,1.123,1.577
				C272.741,314.231,272.048,315.349,271.062,315.349L271.062,315.349z"/>
			<path id="Fill-344_1_" sketch:type="MSShapeGroup" fill="#FFFFFF" d="M223.449,316.621h-2.118l1.214-7.609l-2.71,7.609h-1.444
				l-0.178-7.565l-1.276,7.565h-1.983l1.656-9.898h3.047l0.085,6.127l2.056-6.127h3.29L223.449,316.621"/>
			<path id="Fill-345_1_" sketch:type="MSShapeGroup" fill="#FFFFFF" d="M228.667,313.036c-0.222-0.026-0.32-0.033-0.473-0.033
				c-1.201,0-1.808,0.411-1.808,1.225c0,0.501,0.297,0.821,0.76,0.821C228.008,315.048,228.63,314.227,228.667,313.036
				L228.667,313.036z M230.207,316.621h-1.755l0.04-0.834c-0.535,0.658-1.25,0.973-2.22,0.973c-1.148,0-1.935-0.897-1.935-2.2
				c0-1.961,1.369-3.102,3.72-3.102c0.24,0,0.548,0.022,0.864,0.063c0.065-0.266,0.083-0.38,0.083-0.524
				c0-0.533-0.369-0.731-1.358-0.731c-1.037-0.012-1.891,0.246-2.243,0.361c0.023-0.133,0.294-1.81,0.294-1.81
				c1.056-0.31,1.752-0.427,2.536-0.427c1.819,0,2.783,0.818,2.781,2.361c0.003,0.414-0.065,0.925-0.171,1.595
				C230.656,313.512,230.261,316.014,230.207,316.621L230.207,316.621z"/>
			<path id="Fill-346_1_" sketch:type="MSShapeGroup" fill="#FFFFFF" d="M258.624,306.99l-0.347,2.148
				c-0.757-0.38-1.305-0.534-1.892-0.534c-1.582,0-2.691,1.529-2.691,3.709c0,1.502,0.746,2.41,1.977,2.41
				c0.522,0,1.098-0.161,1.799-0.508l-0.372,2.256c-0.78,0.212-1.285,0.29-1.872,0.29c-2.281,0-3.702-1.64-3.702-4.273
				c0-3.539,1.964-6.012,4.772-6.012C257.22,306.476,258.313,306.868,258.624,306.99"/>
			<path id="Fill-347_1_" sketch:type="MSShapeGroup" fill="#FFFFFF" d="M262.041,313.036c-0.221-0.026-0.319-0.033-0.472-0.033
				c-1.2,0-1.808,0.411-1.808,1.225c0,0.501,0.296,0.821,0.759,0.821C261.383,315.048,262.006,314.227,262.041,313.036
				L262.041,313.036z M263.583,316.621h-1.755l0.04-0.834c-0.535,0.658-1.25,0.973-2.22,0.973c-1.149,0-1.936-0.897-1.936-2.2
				c0-1.961,1.368-3.102,3.719-3.102c0.24,0,0.547,0.022,0.863,0.063c0.066-0.266,0.083-0.38,0.083-0.524
				c0-0.533-0.368-0.731-1.358-0.731c-1.036-0.012-1.89,0.246-2.242,0.361c0.022-0.133,0.294-1.81,0.294-1.81
				c1.056-0.31,1.751-0.427,2.535-0.427c1.819,0,2.784,0.818,2.781,2.361c0.004,0.414-0.064,0.925-0.171,1.595
				C264.032,313.512,263.637,316.014,263.583,316.621L263.583,316.621z"/>
			<path id="Fill-348_1_" sketch:type="MSShapeGroup" fill="#FFFFFF" d="M239.623,316.499c-0.579,0.183-1.032,0.262-1.522,0.262
				c-1.083,0-1.675-0.623-1.675-1.768c-0.015-0.357,0.156-1.292,0.291-2.146c0.122-0.753,0.918-5.494,0.918-5.494h2.106
				l-0.246,1.218h1.081l-0.288,1.934h-1.085c-0.245,1.532-0.593,3.438-0.598,3.691c0,0.416,0.222,0.596,0.726,0.596
				c0.241,0,0.428-0.024,0.571-0.076L239.623,316.499"/>
			<path id="Fill-349_1_" sketch:type="MSShapeGroup" fill="#FFFFFF" d="M246.081,316.436c-0.724,0.222-1.423,0.326-2.162,0.326
				c-2.358-0.002-3.586-1.234-3.586-3.591c0-2.752,1.563-4.779,3.684-4.779c1.738,0,2.847,1.134,2.847,2.915
				c0,0.59-0.077,1.166-0.259,1.979h-4.194c-0.142,1.168,0.606,1.655,1.83,1.655c0.753,0,1.433-0.156,2.19-0.508L246.081,316.436
				L246.081,316.436z M244.897,311.662c0.011-0.168,0.223-1.437-0.98-1.437c-0.67,0-1.151,0.512-1.346,1.437H244.897
				L244.897,311.662z"/>
			<path id="Fill-350_1_" sketch:type="MSShapeGroup" fill="#FFFFFF" d="M231.478,311.117c0,1.019,0.494,1.72,1.614,2.248
				c0.858,0.403,0.991,0.523,0.991,0.889c0,0.502-0.378,0.728-1.217,0.728c-0.632,0-1.22-0.098-1.899-0.317
				c0,0-0.278,1.774-0.291,1.857c0.481,0.105,0.911,0.202,2.204,0.239c2.236,0,3.268-0.851,3.268-2.69
				c0-1.107-0.432-1.755-1.494-2.243c-0.888-0.409-0.99-0.499-0.99-0.875c0-0.435,0.352-0.659,1.037-0.659
				c0.415,0,0.983,0.046,1.522,0.122l0.302-1.867c-0.549-0.087-1.38-0.158-1.865-0.158
				C232.291,308.392,231.471,309.629,231.478,311.117"/>
			<path id="Fill-351_1_" sketch:type="MSShapeGroup" fill="#FFFFFF" d="M274.797,316.621h-2.004l0.099-0.749
				c-0.581,0.621-1.177,0.889-1.953,0.889c-1.54,0-2.558-1.327-2.558-3.341c0-2.678,1.579-4.934,3.447-4.934
				c0.822,0,1.444,0.336,2.023,1.098l0.47-2.86h2.089L274.797,316.621L274.797,316.621z M271.671,314.762
				c0.987,0,1.68-1.118,1.68-2.712c0-1.023-0.394-1.579-1.123-1.579c-0.961,0-1.643,1.122-1.643,2.705
				C270.585,314.229,270.951,314.762,271.671,314.762L271.671,314.762z"/>
			<path id="Fill-352_1_" sketch:type="MSShapeGroup" fill="#FFFFFF" d="M265.492,308.572c-0.265,2.492-0.736,5.015-1.105,7.508
				l-0.097,0.541h2.119c0.758-4.923,0.94-5.883,2.13-5.763c0.189-1.008,0.542-1.89,0.804-2.335
				c-0.887-0.185-1.383,0.316-2.032,1.269c0.052-0.412,0.145-0.812,0.128-1.221H265.492"/>
			<path id="Fill-353_1_" sketch:type="MSShapeGroup" fill="#FFFFFF" d="M248.052,308.572c-0.266,2.492-0.738,5.015-1.106,7.508
				l-0.096,0.541h2.12c0.758-4.923,0.94-5.883,2.127-5.763c0.19-1.008,0.543-1.89,0.805-2.335c-0.886-0.185-1.383,0.316-2.031,1.269
				c0.051-0.412,0.145-0.812,0.127-1.221H248.052"/>
		</g>
	</g>
</g>
<g id="Icons:-Credit-card_3_" sketch:type="MSPage">
	<g id="Visa-card-light" sketch:type="MSArtboardGroup">
		<g id="Credit-Card_x2F_Visa_x2F_Visa-card-light" sketch:type="MSLayerGroup">
			<path id="Rectangle_3_" sketch:type="MSShapeGroup" fill="#FFFFFF" d="M92,281h92c2.209,0,4,1.791,4,4v52c0,2.209-1.791,4-4,4H92
				c-2.209,0-4-1.791-4-4v-52C88,282.791,89.791,281,92,281z"/>
			<path id="Fill-1" sketch:type="MSShapeGroup" fill="#26337A" d="M129.49,320.547l3.075-19.074h4.915l-3.074,19.074H129.49"/>
			<path id="Fill-2" sketch:type="MSShapeGroup" fill="#26337A" d="M152.233,301.941c-0.972-0.383-2.5-0.8-4.404-0.8
				c-4.859,0-8.28,2.588-8.308,6.295c-0.031,2.742,2.441,4.271,4.304,5.182c1.915,0.934,2.559,1.532,2.551,2.367
				c-0.013,1.277-1.529,1.863-2.942,1.863c-1.968,0-3.013-0.288-4.63-1l-0.632-0.304l-0.687,4.27
				c1.146,0.531,3.271,0.992,5.476,1.017c5.164,0,8.52-2.557,8.559-6.515c0.018-2.174-1.292-3.822-4.128-5.183
				c-1.718-0.885-2.772-1.47-2.76-2.366c0.001-0.793,0.891-1.641,2.816-1.641c1.608-0.026,2.771,0.345,3.678,0.733l0.441,0.218
				L152.233,301.941"/>
			<path id="Fill-3" sketch:type="MSShapeGroup" fill="#26337A" d="M158.777,313.784c0.407-1.096,1.958-5.332,1.958-5.332
				c-0.029,0.05,0.405-1.105,0.653-1.82l0.332,1.645c0,0,0.943,4.553,1.137,5.506H158.777L158.777,313.784z M164.841,301.492h-3.798
				c-1.178,0-2.06,0.337-2.576,1.581l-7.299,17.48h5.162c0,0,0.842-2.352,1.033-2.868c0.563,0,5.579,0.01,6.295,0.01
				c0.147,0.666,0.598,2.858,0.598,2.858h4.562L164.841,301.492L164.841,301.492z"/>
			<path id="Fill-4" sketch:type="MSShapeGroup" fill="#26337A" d="M125.367,301.489l-4.811,13.004l-0.515-2.643
				c-0.896-3.046-3.687-6.347-6.808-8.001l4.401,16.682l5.202-0.003l7.74-19.038H125.367"/>
			<path id="Fill-5" sketch:type="MSShapeGroup" fill="#ED982D" d="M116.091,301.476h-7.926l-0.065,0.395
				c6.167,1.58,10.248,5.394,11.941,9.978l-1.722-8.764C118.021,301.876,117.158,301.518,116.091,301.476"/>
		</g>
	</g>
</g>
<g id="Icons:-Payment" sketch:type="MSPage">
	<g id="Paypal-card-light" sketch:type="MSArtboardGroup">
		<g id="Payment_x2F_PayPal_x2F_Paypal-card-light" transform="translate(-1.000000, -1.000000)" sketch:type="MSLayerGroup">
			<path id="Rectangle-Copy" sketch:type="MSShapeGroup" fill="#FFFFFF" d="M525,282h92c2.209,0,4,1.791,4,4v52c0,2.209-1.791,4-4,4
				h-92c-2.209,0-4-1.791-4-4v-52C521,283.791,522.791,282,525,282z"/>
			<path id="Shape-Copy" sketch:type="MSShapeGroup" fill="#0079C1" d="M582.344,308.402c-0.269,1.764-1.616,1.764-2.919,1.764
				h-0.741l0.52-3.293c0.031-0.199,0.203-0.345,0.404-0.345h0.34c0.887,0,1.725,0,2.157,0.505
				C582.363,307.335,582.441,307.783,582.344,308.402 M581.777,303.8h-4.914c-0.336,0-0.622,0.245-0.675,0.577l-1.987,12.601
				c-0.039,0.248,0.153,0.473,0.404,0.473h2.522c0.235,0,0.435-0.171,0.472-0.403l0.564-3.573c0.052-0.332,0.338-0.577,0.674-0.577
				h1.555c3.237,0,5.106-1.566,5.594-4.672c0.22-1.357,0.009-2.424-0.627-3.171C584.66,304.235,583.421,303.8,581.777,303.8"/>
			<path id="Shape-Copy-2" sketch:type="MSShapeGroup" fill="#00457C" d="M547.293,308.402c-0.269,1.764-1.616,1.764-2.919,1.764
				h-0.741l0.52-3.293c0.031-0.199,0.203-0.345,0.404-0.345h0.34c0.887,0,1.725,0,2.157,0.505
				C547.313,307.335,547.391,307.783,547.293,308.402 M546.726,303.8h-4.914c-0.336,0-0.622,0.245-0.675,0.577l-1.987,12.601
				c-0.039,0.248,0.153,0.473,0.404,0.473h2.347c0.336,0,0.622-0.245,0.674-0.576l0.537-3.4c0.052-0.332,0.338-0.577,0.674-0.577
				h1.555c3.237,0,5.106-1.566,5.594-4.672c0.22-1.357,0.009-2.424-0.627-3.171C549.609,304.235,548.37,303.8,546.726,303.8"/>
			<path id="Shape-Copy-3" sketch:type="MSShapeGroup" fill="#00457C" d="M558.135,312.926c-0.227,1.345-1.294,2.247-2.656,2.247
				c-0.682,0-1.229-0.22-1.58-0.635c-0.348-0.412-0.479-0.999-0.369-1.652c0.212-1.333,1.296-2.265,2.637-2.265
				c0.668,0,1.211,0.222,1.569,0.641C558.096,311.685,558.238,312.276,558.135,312.926 M561.414,308.346h-2.353
				c-0.201,0-0.373,0.146-0.405,0.346l-0.103,0.658l-0.164-0.238c-0.51-0.739-1.646-0.987-2.78-0.987c-2.6,0-4.82,1.971-5.253,4.734
				c-0.225,1.379,0.094,2.696,0.876,3.615c0.718,0.845,1.742,1.196,2.963,1.196c2.096,0,3.258-1.346,3.258-1.346l-0.105,0.654
				c-0.039,0.248,0.153,0.473,0.405,0.473h2.119c0.336,0,0.622-0.244,0.675-0.576l1.272-8.056
				C561.858,308.571,561.666,308.346,561.414,308.346"/>
			<path id="Shape-Copy-4" sketch:type="MSShapeGroup" fill="#0079C1" d="M593.186,312.926c-0.227,1.345-1.294,2.247-2.656,2.247
				c-0.682,0-1.229-0.22-1.58-0.635c-0.348-0.412-0.479-0.999-0.369-1.652c0.212-1.333,1.296-2.265,2.637-2.265
				c0.668,0,1.211,0.222,1.569,0.641C593.147,311.685,593.289,312.276,593.186,312.926 M596.465,308.346h-2.353
				c-0.201,0-0.373,0.146-0.405,0.346l-0.103,0.658l-0.165-0.238c-0.509-0.739-1.646-0.987-2.78-0.987
				c-2.6,0-4.82,1.971-5.253,4.734c-0.225,1.379,0.094,2.696,0.876,3.615c0.718,0.845,1.742,1.196,2.963,1.196
				c2.096,0,3.258-1.346,3.258-1.346l-0.105,0.654c-0.039,0.248,0.153,0.473,0.405,0.473h2.119c0.336,0,0.622-0.244,0.675-0.576
				l1.272-8.056C596.909,308.571,596.717,308.346,596.465,308.346"/>
			<path id="Shape-Copy-5" sketch:type="MSShapeGroup" fill="#00457C" d="M573.947,308.346h-2.365c-0.226,0-0.438,0.112-0.565,0.3
				l-3.263,4.805l-1.383-4.618c-0.087-0.289-0.353-0.487-0.654-0.487h-2.325c-0.281,0-0.478,0.276-0.388,0.542l2.604,7.645
				l-2.45,3.456c-0.192,0.271,0.002,0.646,0.335,0.646h2.363c0.224,0,0.433-0.11,0.561-0.293l7.866-11.353
				C574.472,308.717,574.278,308.346,573.947,308.346"/>
			<path id="Shape-Copy-6" sketch:type="MSShapeGroup" fill="#0079C1" d="M599.239,304.146l-2.017,12.832
				c-0.039,0.248,0.153,0.473,0.404,0.473h2.029c0.336,0,0.622-0.245,0.674-0.577l1.989-12.601c0.039-0.248-0.153-0.473-0.405-0.473
				h-2.27C599.441,303.8,599.27,303.947,599.239,304.146"/>
		</g>
	</g>
</g>
<g id="Icons:-Credit-card" sketch:type="MSPage">
	<g id="AmericanExpress-card-light" sketch:type="MSArtboardGroup">
		<g id="Credit-Card_x2F_AmericanExpress_x2F_AmericanExpress-light" sketch:type="MSLayerGroup">
			<path id="Rectangle" sketch:type="MSShapeGroup" fill="#FFFFFF" d="M308,281h92c2.209,0,4,1.791,4,4v52c0,2.209-1.791,4-4,4h-92
				c-2.209,0-4-1.791-4-4v-52C304,282.791,305.791,281,308,281z"/>
			<path id="EXPRESS" sketch:type="MSShapeGroup" fill="#0072CE" d="M388.407,315.666h-3.533c-0.353,0-0.587,0.013-0.784,0.146
				c-0.205,0.131-0.283,0.325-0.283,0.582c0,0.305,0.173,0.513,0.424,0.602c0.205,0.071,0.424,0.092,0.747,0.092l1.051,0.028
				c1.06,0.026,1.768,0.208,2.199,0.651c0.079,0.062,0.126,0.131,0.18,0.2V315.666z M388.407,320.998
				c-0.471,0.687-1.388,1.035-2.631,1.035h-3.744v-1.734h3.728c0.37,0,0.629-0.049,0.784-0.2c0.135-0.125,0.229-0.307,0.229-0.528
				c0-0.236-0.094-0.423-0.237-0.535c-0.141-0.123-0.345-0.18-0.683-0.18c-1.82-0.062-4.091,0.056-4.091-2.503
				c0-1.173,0.747-2.408,2.781-2.408h3.861v-1.609h-3.588c-1.083,0-1.869,0.259-2.426,0.66v-0.66h-5.307
				c-0.849,0-1.845,0.21-2.316,0.66v-0.66h-9.476v0.66c-0.754-0.542-2.027-0.66-2.614-0.66h-6.251v0.66
				c-0.597-0.576-1.923-0.66-2.732-0.66h-6.995l-1.601,1.727l-1.499-1.727h-10.45v11.285h10.253l1.649-1.754l1.554,1.754l6.32,0.006
				v-2.655h0.621c0.839,0.013,1.828-0.021,2.7-0.397v3.046h5.213v-2.941h0.251c0.321,0,0.352,0.013,0.352,0.333v2.608h15.836
				c1.005,0,2.056-0.257,2.638-0.722v0.722h5.023c1.045,0,2.066-0.146,2.843-0.52V320.998L388.407,320.998z M380.675,317.767
				c0.377,0.389,0.58,0.881,0.58,1.714c0,1.74-1.09,2.552-3.045,2.552h-3.776v-1.734h3.761c0.368,0,0.628-0.049,0.792-0.2
				c0.133-0.125,0.229-0.307,0.229-0.528c0-0.236-0.103-0.423-0.237-0.535c-0.148-0.123-0.353-0.18-0.69-0.18
				c-1.813-0.062-4.083,0.056-4.083-2.503c0-1.173,0.739-2.408,2.772-2.408h3.886v1.721h-3.556c-0.352,0-0.582,0.013-0.777,0.146
				c-0.212,0.131-0.291,0.325-0.291,0.582c0,0.305,0.18,0.513,0.424,0.602c0.204,0.071,0.424,0.092,0.754,0.092l1.044,0.028
				C379.513,317.142,380.236,317.323,380.675,317.767L380.675,317.767z M363.182,317.267c-0.259,0.153-0.58,0.167-0.957,0.167
				h-2.355v-1.816h2.387c0.345,0,0.691,0.007,0.925,0.146c0.251,0.131,0.401,0.381,0.401,0.728S363.434,317.116,363.182,317.267
				L363.182,317.267z M364.353,318.274c0.432,0.159,0.784,0.443,0.95,0.679c0.274,0.395,0.313,0.763,0.321,1.476v1.603h-1.946
				v-1.012c0-0.487,0.047-1.207-0.313-1.583c-0.283-0.29-0.715-0.359-1.422-0.359h-2.072v2.954h-1.948v-8.088h4.476
				c0.981,0,1.696,0.043,2.332,0.382c0.612,0.368,0.997,0.873,0.997,1.796C365.727,317.413,364.863,318.072,364.353,318.274
				L364.353,318.274z M366.802,313.944h6.47v1.673h-4.539v1.47h4.429v1.65h-4.429v1.609l4.539,0.007v1.678h-6.47V313.944
				L366.802,313.944z M353.723,317.677h-2.505v-2.06h2.528c0.7,0,1.186,0.284,1.186,0.992
				C354.931,317.308,354.468,317.677,353.723,317.677L353.723,317.677z M349.287,321.297l-2.976-3.294l2.976-3.19V321.297
				L349.287,321.297z M341.601,320.347h-4.766v-1.609h4.256v-1.65h-4.256v-1.47h4.86l2.12,2.357L341.601,320.347L341.601,320.347z
				 M357.012,316.609c0,2.247-1.681,2.711-3.376,2.711h-2.419v2.713h-3.768l-2.387-2.677l-2.481,2.677h-7.679v-8.088h7.797
				l2.385,2.651l2.466-2.651h6.194C355.284,313.944,357.012,314.369,357.012,316.609L357.012,316.609z"/>
			<path id="AMERICAN" sketch:type="MSShapeGroup" fill="#0072CE" d="M325.655,304.624l-1.327-3.223l-1.319,3.223H325.655z
				 M354.884,303.341c-0.266,0.161-0.581,0.167-0.959,0.167h-2.355v-1.796h2.387c0.338,0,0.69,0.015,0.919,0.146
				c0.251,0.118,0.407,0.368,0.407,0.715C355.284,302.925,355.136,303.21,354.884,303.341L354.884,303.341z M371.684,304.624
				l-1.341-3.223l-1.334,3.223H371.684L371.684,304.624z M340.368,308.113h-1.987l-0.007-6.333l-2.811,6.333h-1.702l-2.818-6.338
				v6.338H327.1l-0.745-1.803h-4.036l-0.752,1.803h-2.105l3.471-8.086h2.88l3.297,7.656v-7.656h3.164l2.537,5.485l2.33-5.485h3.228
				L340.368,308.113L340.368,308.113z M348.289,308.113h-6.476v-8.086h6.476v1.684h-4.537v1.457h4.428v1.657h-4.428v1.615h4.537
				V308.113L348.289,308.113z M357.419,302.205c0,1.289-0.863,1.955-1.366,2.155c0.424,0.161,0.786,0.445,0.959,0.681
				c0.274,0.402,0.321,0.761,0.321,1.484v1.588h-1.955l-0.007-1.02c0-0.487,0.047-1.186-0.306-1.575
				c-0.283-0.284-0.715-0.346-1.413-0.346h-2.081v2.941h-1.938v-8.086h4.459c0.991,0,1.721,0.026,2.347,0.387
				C357.052,300.776,357.419,301.303,357.419,302.205L357.419,302.205z M360.522,308.113h-1.978v-8.086h1.978V308.113
				L360.522,308.113z M383.469,308.113h-2.747l-3.674-6.069v6.069H373.1l-0.754-1.803h-4.027l-0.732,1.803h-2.268
				c-0.942,0-2.135-0.208-2.811-0.894c-0.681-0.687-1.036-1.616-1.036-3.087c0-1.199,0.212-2.295,1.045-3.162
				c0.627-0.645,1.608-0.943,2.944-0.943h1.877v1.733H365.5c-0.707,0-1.107,0.105-1.492,0.479c-0.33,0.34-0.557,0.984-0.557,1.832
				c0,0.866,0.173,1.491,0.533,1.899c0.298,0.32,0.841,0.417,1.351,0.417h0.871l2.732-6.359h2.905l3.282,7.648v-7.648h2.952
				l3.408,5.631v-5.631h1.986V308.113L383.469,308.113z M319.438,309.701h3.312l0.747-1.796h1.672l0.745,1.796h6.517v-1.373
				l0.582,1.379h3.383l0.582-1.399v1.394h16.196l-0.008-2.948h0.313c0.219,0.008,0.284,0.028,0.284,0.389v2.559h8.376v-0.686
				c0.676,0.361,1.727,0.686,3.109,0.686h3.524l0.754-1.796h1.672l0.738,1.796h6.791v-1.706l1.028,1.706h5.442v-11.277h-5.386v1.332
				l-0.754-1.332h-5.526v1.332l-0.693-1.332h-7.465c-1.25,0-2.348,0.174-3.235,0.659v-0.659h-5.151v0.659
				c-0.565-0.499-1.334-0.659-2.189-0.659h-18.819l-1.263,2.913l-1.297-2.913h-5.928v1.332l-0.651-1.332h-5.055l-2.348,5.362
				L319.438,309.701L319.438,309.701z"/>
		</g>
	</g>
</g>
</svg>
